<?xml version="1.0" encoding="UTF-8" standalone="no"?>
<!-- Created with Inkscape (http://www.inkscape.org/) -->

<svg
   xmlns:dc="http://purl.org/dc/elements/1.1/"
   xmlns:cc="http://creativecommons.org/ns#"
   xmlns:rdf="http://www.w3.org/1999/02/22-rdf-syntax-ns#"
   xmlns:svg="http://www.w3.org/2000/svg"
   xmlns="http://www.w3.org/2000/svg"
   xmlns:xlink="http://www.w3.org/1999/xlink"
   xmlns:sodipodi="http://sodipodi.sourceforge.net/DTD/sodipodi-0.dtd"
   xmlns:inkscape="http://www.inkscape.org/namespaces/inkscape"
   width="1200"
   height="600"
   viewBox="0 0 1200.0001 600.00002"
   id="svg2"
   version="1.1"
   inkscape:version="0.91 r13725"
   sodipodi:docname="bg_service.svg">
  <defs
     id="defs4">
    <linearGradient
       inkscape:collect="always"
       id="linearGradient4167">
      <stop
         style="stop-color:#fcfcb4;stop-opacity:1"
         offset="0"
         id="stop4169" />
      <stop
         id="stop4175"
         offset="0.36974743"
         style="stop-color:#ffffb9;stop-opacity:0.76078433" />
      <stop
         style="stop-color:#efefdb;stop-opacity:0.43137255"
         offset="0.68788785"
         id="stop4177" />
      <stop
         style="stop-color:#f8f8da;stop-opacity:0;"
         offset="1"
         id="stop4171" />
    </linearGradient>
    <linearGradient
       inkscape:collect="always"
       xlink:href="#linearGradient4167"
       id="linearGradient4173"
       x1="4.2857165"
       y1="823.79077"
       x2="1194.2859"
       y2="819.50507"
       gradientUnits="userSpaceOnUse" />
  </defs>
  <sodipodi:namedview
     id="base"
     pagecolor="#ffffff"
     bordercolor="#666666"
     borderopacity="1.0"
     inkscape:pageopacity="0.0"
     inkscape:pageshadow="2"
     inkscape:zoom="0.35"
     inkscape:cx="600.52862"
     inkscape:cy="186.12461"
     inkscape:document-units="px"
     inkscape:current-layer="layer1"
     showgrid="false"
     units="px"
     showguides="false"
     inkscape:window-width="1280"
     inkscape:window-height="657"
     inkscape:window-x="-8"
     inkscape:window-y="-8"
     inkscape:window-maximized="1" />
  <metadata
     id="metadata7">
    <rdf:RDF>
      <cc:Work
         rdf:about="">
        <dc:format>image/svg+xml</dc:format>
        <dc:type
           rdf:resource="http://purl.org/dc/dcmitype/StillImage" />
        <dc:title></dc:title>
      </cc:Work>
    </rdf:RDF>
  </metadata>
  <g
     inkscape:label="Layer 1"
     inkscape:groupmode="layer"
     id="layer1"
     transform="translate(0,-452.36221)">
    <rect
       style="opacity:1;fill:url(#linearGradient4173);fill-opacity:1;fill-rule:evenodd;stroke:#ffaf1e;stroke-width:0;stroke-linecap:round;stroke-linejoin:bevel;stroke-miterlimit:4;stroke-dasharray:none;stroke-dashoffset:0;stroke-opacity:1"
       id="rect4136"
       width="1197.1429"
       height="597.14288"
       x="4.8914858e-006"
       y="452.36218"
       ry="0" />
    <path
       sodipodi:type="spiral"
       style="fill:none;fill-rule:evenodd;stroke:#ffae19;stroke-width:2.60000038;stroke-linecap:butt;stroke-linejoin:miter;stroke-miterlimit:4;stroke-dasharray:none;stroke-opacity:1"
       id="path4179"
       sodipodi:cx="567.70575"
       sodipodi:cy="743.25543"
       sodipodi:expansion="1.48"
       sodipodi:revolution="10"
       sodipodi:radius="711.1933"
       sodipodi:argument="-62.843216"
       sodipodi:t0="0"
       d="m 567.70575,743.25543 c 1.55557,-0.0177 0.54432,2.53478 0.0344,3.02629 -2.82267,2.72072 -7.11164,-0.11719 -8.47619,-2.93036 -3.14148,-6.4765 2.14088,-13.4785 8.26699,-15.47925 10.72503,-3.50274 21.19988,4.92395 23.72311,15.11573 3.8475,15.54071 -8.2948,30.05111 -23.176,33.0308 -20.87407,4.17965 -39.89053,-12.16049 -43.2839,-32.27559 -4.50098,-26.68081 16.46124,-50.61882 42.29902,-54.39595 32.92451,-4.81312 62.16135,21.15445 66.30027,53.1619 5.11752,39.57529 -26.20778,74.45943 -64.79911,78.94337 -46.6083,5.41542 -87.46532,-31.5956 -92.28114,-77.15841 -5.70786,-54.00254 37.29695,-101.13917 90.1967,-106.27638 61.74001,-5.99571 115.44713,43.29428 120.89721,103.87764 6.27967,69.80506 -49.57265,130.35991 -118.17007,136.11586 -78.18395,6.56035 -145.85189,-56.1191 -151.9079,-133.04686 -6.83826,-86.86448 62.92228,-161.90038 148.48413,-168.2516 95.83572,-7.11383 178.48515,69.97212 185.12747,164.46065 7.38744,105.08783 -77.25965,195.58794 -180.95736,202.51793 -114.61189,7.65938 -213.19224,-84.77677 -220.40698,-197.95709 -7.92994,-124.39976 92.51613,-231.28298 215.44418,-238.78 134.44395,-8.19934 249.84636,100.47106 257.62356,233.40437 8.4678,144.73756 -108.6354,268.86962 -251.8245,276.92522 C 415.5454,1026.0192 282.47862,900.28022 274.14608,746.59126 265.14347,580.54323 399.71619,438.34164 564.14309,429.73343 741.19653,420.46418 892.72832,564.06385 901.61117,739.46114 911.14672,927.74644 758.33131,1088.7995 571.73634,1097.9561 371.99757,1107.7578 201.2363,945.54191 191.80657,747.52691 181.73897,536.1176 353.5361,355.46499 563.1889,345.76269 786.48151,335.42918 977.20499,516.98477 987.17943,738.4888 997.77891,973.87346 806.29111,1174.8439 572.72648,1185.0902 325.04488,1195.9558 113.6546,994.36521 103.13669,748.5345 92.004841,488.3547 303.86557,266.37478 562.16418,255.58532 835.03999,244.18696 1067.7765,466.4824 1078.8374,737.44726 1090.5026,1023.2136 857.61069,1266.8708 573.78455,1278.2033 274.93625,1290.1356 20.196928,1046.4881 8.5927025,749.60883 -3.6071898,437.49017 250.95251,171.50969 561.07384,159.63359 886.64843,147.16571 1164.0267,412.79182 1176.1749,736.34118 1188.9112,1075.5545 912.06677,1364.4848 574.90614,1376.9053 221.87383,1389.9106 -78.760482,1101.6982 -91.453808,750.7457 -104.72859,383.71672 194.99943,71.228367 559.92192,58.261934 941.12286,44.717095 1265.6132,356.10629 1278.8531,735.17441" />
  </g>
</svg>
